<?xml version="1.0" encoding="UTF-8"?>
<svg xmlns="http://www.w3.org/2000/svg" version="1.1" viewBox="0 0 1200 800">
  <defs>
    <style>
      .cls-1 {
        fill: #fff;
      }

      .cls-2 {
        fill: #6b6c6f;
      }
    </style>
  </defs>
  <!-- Generator: Adobe Illustrator 28.7.3, SVG Export Plug-In . SVG Version: 1.2.0 Build 164)  -->
  <g>
    <g id="Layer_1">
      <g>
        <circle class="cls-2" cx="600" cy="400" r="266.7"/>
        <path class="cls-1" d="M777.8,400c0-21.5-17.5-39-39-39s-20,4.1-26.8,10.9c-26.5-19-63.3-31.5-103.9-33.1l17.8-83.3,57.7,12.2c.6,14.7,12.8,26.5,27.8,26.5s27.8-12.5,27.8-27.8-12.5-27.8-27.8-27.8-20.3,6.2-24.6,15.6l-64.6-13.7c-1.9-.3-3.7,0-5.3.9s-2.5,2.5-3.1,4.4l-19.6,92.9c-41.5,1.2-78.6,13.4-105.4,33.1-6.9-6.5-16.5-10.9-26.8-10.9-21.5,0-39,17.5-39,39s9.4,29.3,23.1,35.6c-.6,3.7-.9,7.8-.9,11.9,0,59.9,69.6,108.2,155.6,108.2s155.6-48.3,155.6-108.2-.3-7.8-.9-11.5c12.8-6.2,22.5-20,22.5-35.9h0ZM511.1,427.8c0-15.3,12.5-27.8,27.8-27.8s27.8,12.5,27.8,27.8-12.5,27.8-27.8,27.8-27.8-12.5-27.8-27.8ZM666.1,501.1c-19,19-55.2,20.3-65.8,20.3s-47.1-1.6-65.8-20.3-2.8-7.5,0-10.3c2.8-2.8,7.5-2.8,10.3,0,11.9,11.9,37.4,16.2,55.8,16.2s43.7-4.4,55.8-16.2c2.8-2.8,7.5-2.8,10.3,0,2.2,3.1,2.2,7.5-.6,10.3h0ZM661.1,455.5c-15.3,0-27.8-12.5-27.8-27.8s12.5-27.8,27.8-27.8,27.8,12.5,27.8,27.8-12.5,27.8-27.8,27.8Z"/>
      </g>
    </g>
  </g>
</svg>